# Blender 4.2.0
# www.blender.org
mtllib InnerRing.mtl
o Circle
v 0.000000 0.000000 0.000000
v -0.773010 0.000000 -0.634393
v -0.831470 0.000000 -0.555570
v -0.881921 0.000000 -0.471397
v -0.923880 0.000000 -0.382683
v -0.956940 0.000000 -0.290285
v -0.980785 0.000000 -0.195090
v -0.995185 0.000000 -0.098017
v -1.000000 0.000000 0.000000
v -0.995185 0.000000 0.098017
v -0.980785 0.000000 0.195090
v -0.956940 0.000000 0.290285
v -0.923880 0.000000 0.382683
v -0.881921 0.000000 0.471397
v -0.831470 0.000000 0.555570
v -0.773010 0.000000 0.634393
v -0.773010 0.169504 0.634393
v -0.831470 0.169504 0.555570
v -0.881921 0.169504 0.471397
v -0.923880 0.169504 0.382683
v -0.956940 0.169504 0.290285
v -0.980785 0.169504 0.195090
v -0.995185 0.169504 0.098017
v -1.000000 0.169504 0.000000
v -0.995185 0.169504 -0.098017
v -0.980785 0.169504 -0.195090
v -0.956940 0.169504 -0.290285
v -0.923880 0.169504 -0.382683
v -0.881921 0.169504 -0.471397
v -0.831470 0.169504 -0.555570
v -0.773010 0.169504 -0.634393
v 0.000000 0.169504 0.000000
vn -0.0000 -1.0000 -0.0000
vn -0.8577 -0.0000 0.5141
vn -0.9892 -0.0000 0.1467
vn -0.9700 -0.0000 -0.2430
vn -0.8032 -0.0000 -0.5957
vn -0.9040 -0.0000 0.4276
vn -0.9988 -0.0000 0.0491
vn 0.6344 -0.0000 -0.7730
vn -0.9415 -0.0000 -0.3369
vn -0.9415 -0.0000 0.3369
vn 0.6344 -0.0000 0.7730
vn -0.9988 -0.0000 -0.0491
vn -0.9040 -0.0000 -0.4276
vn -0.8032 -0.0000 0.5957
vn -0.9700 -0.0000 0.2430
vn -0.9892 -0.0000 -0.1467
vn -0.8577 -0.0000 -0.5141
vn -0.0000 1.0000 -0.0000
vt 0.500000 0.500000
vt 0.084265 0.777785
vt 0.113495 0.817197
vt 0.059039 0.735698
vt 0.038060 0.691342
vt 0.021530 0.645142
vt 0.009607 0.597545
vt 0.002408 0.549009
vt 0.000000 0.500000
vt 0.002408 0.450991
vt 0.009607 0.402455
vt 0.021530 0.354858
vt 0.038060 0.308658
vt 0.059039 0.264302
vt 0.084265 0.222215
vt 0.113495 0.182803
s 0
f 1/1/1 3/2/1 2/3/1
f 1/1/1 4/4/1 3/2/1
f 1/1/1 5/5/1 4/4/1
f 1/1/1 6/6/1 5/5/1
f 1/1/1 7/7/1 6/6/1
f 1/1/1 8/8/1 7/7/1
f 1/1/1 9/9/1 8/8/1
f 1/1/1 10/10/1 9/9/1
f 1/1/1 11/11/1 10/10/1
f 1/1/1 12/12/1 11/11/1
f 1/1/1 13/13/1 12/12/1
f 1/1/1 14/14/1 13/13/1
f 1/1/1 15/15/1 14/14/1
f 1/1/1 16/16/1 15/15/1
f 14/14/2 15/15/2 18/15/2 19/14/2
f 10/10/3 11/11/3 22/11/3 23/10/3
f 6/6/4 7/7/4 26/7/4 27/6/4
f 2/3/5 3/2/5 30/2/5 31/3/5
f 13/13/6 14/14/6 19/14/6 20/13/6
f 9/9/7 10/10/7 23/10/7 24/9/7
f 1/1/8 2/3/8 31/3/8 32/1/8
f 5/5/9 6/6/9 27/6/9 28/5/9
f 12/12/10 13/13/10 20/13/10 21/12/10
f 16/16/11 1/1/11 32/1/11 17/16/11
f 8/8/12 9/9/12 24/9/12 25/8/12
f 4/4/13 5/5/13 28/5/13 29/4/13
f 15/15/14 16/16/14 17/16/14 18/15/14
f 11/11/15 12/12/15 21/12/15 22/11/15
f 7/7/16 8/8/16 25/8/16 26/7/16
f 3/2/17 4/4/17 29/4/17 30/2/17
f 32/1/18 18/15/18 17/16/18
f 32/1/18 19/14/18 18/15/18
f 32/1/18 20/13/18 19/14/18
f 32/1/18 21/12/18 20/13/18
f 32/1/18 22/11/18 21/12/18
f 32/1/18 23/10/18 22/11/18
f 32/1/18 24/9/18 23/10/18
f 32/1/18 25/8/18 24/9/18
f 32/1/18 26/7/18 25/8/18
f 32/1/18 27/6/18 26/7/18
f 32/1/18 28/5/18 27/6/18
f 32/1/18 29/4/18 28/5/18
f 32/1/18 30/2/18 29/4/18
f 32/1/18 31/3/18 30/2/18
